<?xml version="1.0" encoding="utf-8"?>
<!-- Generator: Adobe Illustrator 24.1.2, SVG Export Plug-In . SVG Version: 6.00 Build 0)  -->
<svg version="1.1" id="Layer_1" xmlns="http://www.w3.org/2000/svg" xmlns:xlink="http://www.w3.org/1999/xlink" x="0px" y="0px"
	 viewBox="0 0 3646.8 5000" style="enable-background:new 0 0 3646.8 5000;" xml:space="preserve">
<style type="text/css">
	.st0{fill:#FFFFFF;}
	.st1{fill:#1D71B8;}
	.st2{fill:#BE1622;}
	.st3{fill:#575756;}
</style>
<g>
</g>
<g>
	<g id="XMLID_496_">
		<g id="XMLID_497_">
			<path class="st0" d="M530.3,2561.2c-9.7-14.2-28.1-24.4-55.3-30.6c24.4-5.6,40.7-13.6,49-24c8.3-10.4,12.4-28.8,12.4-55.2
				c0-39.1-5.9-67.4-17.6-85c-11.7-17.6-27.1-29.2-46.2-35c-19.1-5.8-47.1-8.7-84.2-8.7H271.2v452.1h136c47.3,0,78.6-2.6,93.8-8.1
				c15.3-5.4,26.4-15.5,33.4-30.2c7-14.7,10.4-37.3,10.4-67.9v-41.9C544.8,2597.3,540,2575.5,530.3,2561.2z M427.3,2655.3
				c0,18.2-2.3,29.7-6.9,34.4c-4.5,4.6-15.1,7.3-31.7,7.8V2571c17.5,0.5,28.3,2.9,32.4,7c4.1,4.1,6.2,15.8,6.2,35.2V2655.3z
				 M422.5,2491.8c-3.2,5.7-10.5,8.5-22,8.5c-2.8,0-6.7,0.1-11.7,0.3v-100.6c12.1,0.2,20.2,1.1,24.4,2.6c4.2,1.5,7.6,5,10.2,10.7
				c2.6,5.7,3.9,15.6,3.9,29.8C427.3,2469.9,425.7,2486.1,422.5,2491.8z"/>
		</g>
	</g>
	<g id="XMLID_532_">
		<g id="XMLID_533_">
			<path class="st0" d="M3082.3,2412.4c-2.2-18.7-9.2-35.9-21-51.7c-11.7-15.8-27.2-27.7-46.5-35.6c-19.3-7.9-41-11.9-65.3-11.9
				c-25.5,0-47.8,4.2-67,12.5c-19.1,8.4-34.4,20.4-45.7,36c-11.3,15.7-18,33-20.1,51.8c-2.2,18.9-3.3,51.1-3.3,96.5v77.3
				c0,46.5,1.2,79.1,3.4,97.7c2.2,18.6,9.2,35.8,21,51.7c11.7,15.8,27.2,27.7,46.5,35.5c19.3,7.9,41,11.9,65.2,11.9
				c25.5,0,47.9-4.1,67-12.5c19.2-8.3,34.4-20.3,45.7-36c11.3-15.6,17.9-32.9,20.1-51.8c2.1-18.9,3.2-51,3.2-96.5v-77.3
				C3085.6,2463.6,3084.5,2431,3082.3,2412.4z M2968,2646.7c0,26.6-1.1,43.5-3.3,50.5c-2.2,7.1-7.4,10.6-15.4,10.6
				c-7.8,0-12.8-3.1-14.9-9.2c-2.2-6.2-3.2-22.4-3.2-48.6v-211.1c0-23.3,1.6-37.3,4.9-42.1c3.3-4.7,7.9-7.1,14.1-7.1
				c7.3,0,12,2.9,14.4,8.8c2.3,5.8,3.5,19.3,3.5,40.4V2646.7z"/>
		</g>
	</g>
	<g id="XMLID_537_">
		<g id="XMLID_538_">
			<path class="st0" d="M3378.1,2386.6c-3.1-13.5-9-25-17.6-34.5c-8.7-9.5-21.6-16.8-38.9-21.8c-17.2-5-41.9-7.5-73.9-7.5h-118.4
				v452.1H3247v-182.1h31.5c25.7,0,46.5-3.5,62.4-10.6c15.9-7.1,26.9-17.2,32.8-30.5c6-13.2,9-34.3,9-63.1v-39.4
				C3382.8,2421,3381.2,2400.1,3378.1,2386.6z M3284.5,2474.4c0,16.8-2.1,27.7-6.3,33c-4.2,5.4-11.7,8-22.5,8
				c-2.4,0-5.4-0.1-8.7-0.3v-115.1c15.3,0,25.3,2.4,30.2,7c4.8,4.7,7.3,14.7,7.3,30.2V2474.4z"/>
		</g>
	</g>
	<g id="XMLID_542_">
		<g id="XMLID_660_">
			<path class="st1" d="M3584,2708.1l-104.9-61.2h0c-16.3,27.9-6.9,63.7,21,80l88.8,51.8h20.5
				C3619,2752.6,3608.8,2722.6,3584,2708.1z"/>
		</g>
		<g id="XMLID_659_">
			<path class="st1" d="M3604.9,2338.3c3.6-6.2,6-12.7,7.1-19.4h-40.3L3604.9,2338.3z"/>
		</g>
		<g id="XMLID_658_">
			<path class="st2" d="M3478.3,2759.3c-3.6,6.2-6,12.7-7.1,19.4h40.3L3478.3,2759.3z"/>
		</g>
		<g id="XMLID_657_">
			<path class="st2" d="M3500.1,2389.5l104.9,61.2l0,0c16.3-27.9,6.9-63.7-21-80l-88.8-51.8h-20.5
				C3465.1,2345,3475.3,2375,3500.1,2389.5z"/>
		</g>
		<g id="XMLID_656_">
			<path class="st1" d="M3500.1,2501.9l104.9,61.2l0,0c16.3-27.9,6.9-63.7-21-80l-104.9-61.2v0
				C3462.8,2449.8,3472.2,2485.6,3500.1,2501.9z"/>
		</g>
		<g id="XMLID_648_">
			<path class="st2" d="M3500.1,2614.4l104.9,61.2l0,0c16.3-27.9,6.9-63.7-21-80l-104.9-61.2v0
				C3462.8,2562.3,3472.2,2598.1,3500.1,2614.4z"/>
		</g>
		<g id="XMLID_543_">
			<path class="st3" d="M3511.4,2262.4c-0.9,1-17.6,18.9-12,44h113.5c0-19.6-7.9-37.3-20.7-50.1c-8.9-8.9-20.3-15.5-33-18.7v-3.2
				c0-4.9-2-9.4-5.2-12.7c-3.3-3.3-7.8-5.3-12.7-5.3c-9.9,0-18,8.1-18,18v3.7c-12,3.3-22.8,9.7-31.4,18.2
				c-12.8,12.8-20.8,30.6-20.8,50.1h16.3C3487.4,2306.4,3487.4,2270.5,3511.4,2262.4z"/>
		</g>
		<g id="XMLID_544_">
			<path class="st3" d="M3511.4,2835.2c-24-8.1-24-44-24-44h-16.3c0,19.6,7.9,37.3,20.8,50.1c8.6,8.6,19.3,15,31.4,18.2v3.7
				c0,9.9,8.1,18,18,18c5,0,9.5-2,12.7-5.3c3.2-3.3,5.2-7.8,5.2-12.7v-3.2c12.7-3.1,24-9.7,33-18.7c12.8-12.8,20.7-30.6,20.7-50.1
				h-113.5C3493.7,2816.3,3510.5,2834.2,3511.4,2835.2z"/>
		</g>
	</g>
	<g id="XMLID_546_">
		<g id="XMLID_548_">
			<path class="st1" d="M148.8,2708.1l-104.9-61.2h0c-16.3,27.9-6.9,63.7,21,80l88.8,51.8h20.5
				C183.7,2752.6,173.6,2722.6,148.8,2708.1z"/>
		</g>
		<g id="XMLID_549_">
			<path class="st1" d="M169.7,2338.3c3.6-6.2,6-12.7,7.1-19.4h-40.3L169.7,2338.3z"/>
		</g>
		<g id="XMLID_550_">
			<path class="st2" d="M43,2759.3c-3.6,6.2-6,12.7-7.1,19.4h40.3L43,2759.3z"/>
		</g>
		<g id="XMLID_551_">
			<path class="st2" d="M64.8,2389.5l104.9,61.2l0,0c16.3-27.9,6.9-63.7-21-80l-88.8-51.8H39.5C29.9,2345,40,2375,64.8,2389.5z"/>
		</g>
		<g id="XMLID_552_">
			<path class="st1" d="M64.8,2501.9l104.9,61.2l0,0c16.3-27.9,6.9-63.7-21-80L43.8,2422v0C27.6,2449.8,37,2485.6,64.8,2501.9z"/>
		</g>
		<g id="XMLID_553_">
			<path class="st2" d="M64.8,2614.4l104.9,61.2l0,0c16.3-27.9,6.9-63.7-21-80l-104.9-61.2v0C27.6,2562.3,37,2598.1,64.8,2614.4z"/>
		</g>
		<g id="XMLID_554_">
			<path class="st3" d="M76.1,2262.4c-0.9,1-17.6,18.9-12,44h113.5c0-19.6-7.9-37.3-20.7-50.1c-8.9-8.9-20.3-15.5-33-18.7v-3.2
				c0-4.9-2-9.4-5.2-12.7c-3.3-3.3-7.8-5.3-12.7-5.3c-9.9,0-18,8.1-18,18v3.7c-12,3.3-22.8,9.7-31.4,18.2
				c-12.8,12.8-20.8,30.6-20.8,50.1h16.3C52.2,2306.4,52.2,2270.5,76.1,2262.4z"/>
		</g>
		<g id="XMLID_555_">
			<path class="st3" d="M76.1,2835.2c-24-8.1-24-44-24-44H35.9c0,19.6,7.9,37.3,20.8,50.1c8.6,8.6,19.3,15,31.4,18.2v3.7
				c0,9.9,8.1,18,18,18c5,0,9.5-2,12.7-5.3c3.2-3.3,5.2-7.8,5.2-12.7v-3.2c12.7-3.1,24-9.7,33-18.7c12.8-12.8,20.7-30.6,20.7-50.1
				H64.2C58.5,2816.3,75.2,2834.2,76.1,2835.2z"/>
		</g>
	</g>
	<g>
		<g id="XMLID_646_">
			<path class="st0" d="M2099,2088.1c0,0-23.5,96.7-132.6,37.9c0,0-18.9-8.1-46.2-41.4c0,0-46.6-60.2-111-21.6
				c-64.4-38.6-111,21.6-111,21.6c-27.3,33.3-46.2,41.4-46.2,41.4c-109.1,58.8-132.6-37.9-132.6-37.9
				c-5.7,155.1,164,141.6,164,141.6c96.2-6.8,125.9-65.1,125.9-65.1s29.7,58.3,125.9,65.1C1935,2229.6,2104.6,2243.2,2099,2088.1z"
				/>
		</g>
		<g id="XMLID_502_">
			<g id="XMLID_503_">
				<path class="st0" d="M790.2,2322.7H620.3l-60,452.1h121.6l7.1-81.3H731l6.3,81.3h120.1L790.2,2322.7z M687.5,2613.5
					c3.1-40,10.6-103.3,22.5-189.9c6,75.4,12,138.7,17.9,189.9H687.5z"/>
			</g>
		</g>
		<g id="XMLID_507_">
			<g id="XMLID_508_">
				<path class="st0" d="M1122.1,2562.1c-8-9.6-23.7-17.4-46.9-23.1c25.7-2.4,42.9-9.7,51.7-21.8c8.8-12.1,13.1-35.7,13.1-71
					c0-38.5-6.2-66.6-18.5-84.2c-12.4-17.6-28.4-28.6-48-32.8c-19.7-4.3-57.3-6.4-112.7-6.4h-83.2v452.1H995V2571
					c16.2,0,26.2,2.9,30,8.7c3.9,5.8,5.8,20.8,5.8,45v150.2h109.1v-119.2c0-36.5-0.9-58.8-2.9-66.9
					C1135,2580.6,1130.1,2571.8,1122.1,2562.1z M1030.8,2459.9c0,19.9-2.6,31.7-8,35.3c-5.3,3.7-14.5,5.5-27.7,5.5v-100.6
					c13.6,0,22.9,2.2,28.1,6.7c5.1,4.5,7.7,13.9,7.7,28.2V2459.9z"/>
			</g>
		</g>
		<g id="XMLID_512_">
			<g id="XMLID_513_">
				<path class="st0" d="M1444.6,2561.2c-9.7-14.2-28.1-24.4-55.3-30.6c24.4-5.6,40.7-13.6,49-24c8.3-10.4,12.5-28.8,12.5-55.2
					c0-39.1-5.9-67.4-17.6-85c-11.7-17.6-27.1-29.2-46.2-35c-19.1-5.8-47.1-8.7-84.2-8.7h-117.3v452.1h136c47.3,0,78.6-2.6,93.8-8.1
					c15.3-5.4,26.4-15.5,33.4-30.2c7-14.7,10.4-37.3,10.4-67.9v-41.9C1459.1,2597.3,1454.3,2575.5,1444.6,2561.2z M1341.6,2655.3
					c0,18.2-2.3,29.7-6.9,34.4c-4.5,4.6-15.1,7.3-31.7,7.8V2571c17.5,0.5,28.3,2.9,32.4,7c4.1,4.1,6.2,15.8,6.2,35.2V2655.3z
					 M1336.8,2491.8c-3.2,5.7-10.5,8.5-22,8.5c-2.8,0-6.7,0.1-11.7,0.3v-100.6c12.1,0.2,20.2,1.1,24.4,2.6c4.2,1.5,7.6,5,10.2,10.7
					c2.6,5.7,3.9,15.6,3.9,29.8C1341.6,2469.9,1340,2486.1,1336.8,2491.8z"/>
			</g>
		</g>
		<g id="XMLID_518_">
			<g id="XMLID_519_">
				<path class="st0" d="M1618.9,2684.4V2585h73.5v-86h-73.5v-85.7h78.5v-90.5h-196v452.1h203.8v-90.4H1618.9z"/>
			</g>
		</g>
		<g id="XMLID_521_">
			<g id="XMLID_522_">
				<path class="st0" d="M1983.6,2562.1c-8-9.6-23.7-17.4-46.9-23.1c25.7-2.4,42.9-9.7,51.7-21.8c8.8-12.1,13.1-35.7,13.1-71
					c0-38.5-6.2-66.6-18.5-84.2c-12.4-17.6-28.4-28.6-48.1-32.8c-19.6-4.3-57.2-6.4-112.7-6.4H1739v452.1h117.6V2571
					c16.1,0,26.2,2.9,30,8.7c3.8,5.8,5.8,20.8,5.8,45v150.2h109.1v-119.2c0-36.5-0.9-58.8-2.9-66.9
					C1996.6,2580.6,1991.6,2571.8,1983.6,2562.1z M1892.3,2459.9c0,19.9-2.7,31.7-8,35.3c-5.3,3.7-14.6,5.5-27.7,5.5v-100.6
					c13.6,0,22.9,2.2,28,6.7c5.2,4.5,7.7,13.9,7.7,28.2V2459.9z"/>
			</g>
		</g>
		<g id="XMLID_526_">
			<g id="XMLID_527_">
				<path class="st0" d="M2442.2,2562.9c-13.6-19.9-46.5-45.4-98.9-76.5c-18.2-10.8-29.3-20-33.2-27.6c-4.1-7.7-6.1-19-6.1-34.1
					c0-11.7,1.8-20.5,5.4-26.3c3.7-5.8,9-8.7,16.1-8.7c6.5,0,11.2,2.2,14,6.4c2.8,4.3,4.2,14.2,4.2,29.8v33.5h109.1v-17.8
					c0-36-3.5-61.4-10.4-76.4c-7-15-21.2-27.4-42.7-37.3c-21.5-9.8-47.6-14.8-78.1-14.8c-27.9,0-51.8,4.5-71.5,13.6
					s-34,21.6-42.9,37.6c-8.8,16-13.2,41.3-13.2,75.9c0,24,3.1,43.8,9.4,59.2c6.2,15.5,14.1,27.5,23.6,36.3
					c9.5,8.8,28.8,22.9,58.1,42.2c29.2,19.2,47.6,32.8,55,41c7.3,8.2,10.9,25.6,10.9,52.2c0,12.1-2,21.2-5.8,27.4
					c-3.8,6.1-9.6,9.2-17.4,9.2c-7.8,0-13.3-2.4-16.3-7.3c-3.1-4.8-4.6-15.7-4.6-32.6v-55h-109.2v29.6c0,33.9,3.5,60,10.4,78.5
					c6.9,18.5,21.4,33.6,43.7,45.5c22.2,11.9,49.1,17.8,80.6,17.8c28.6,0,53.8-5.2,75.4-15.5c21.6-10.3,36.2-23.1,43.8-38.4
					c7.5-15.3,11.3-39,11.3-71.2C2462.5,2615,2455.8,2582.8,2442.2,2562.9z"/>
			</g>
		</g>
		<g id="XMLID_529_">
			<g id="XMLID_530_">
				<path class="st0" d="M2652.2,2322.7v161.7H2617v-161.7h-117.6v452.1H2617V2585h35.2v189.9h117.6v-452.1H2652.2z"/>
			</g>
		</g>
		<g id="XMLID_556_">
			<rect x="268.6" y="2202.8" class="st0" width="1179.9" height="27.1"/>
		</g>
		<g id="XMLID_557_">
			<rect x="2158.9" y="2202.8" class="st0" width="1221.3" height="27.1"/>
		</g>
		<g id="XMLID_558_">
			<rect x="268.6" y="2856.5" class="st0" width="909.6" height="27.1"/>
		</g>
		<g id="XMLID_559_">
			<rect x="2470.6" y="2856.5" class="st0" width="909.6" height="27.1"/>
		</g>
		<g>
			<g>
				<path class="st0" d="M1273.1,2830.7v6.6H1251v73h-8v-73h-22.2v-6.6H1273.1z"/>
				<path class="st0" d="M1377.4,2891.3h-36.2l-6.9,18.9h-8.4l29-78.5h9l28.9,78.5h-8.4L1377.4,2891.3z M1375,2884.7l-15.7-43
					l-15.7,43H1375z"/>
				<path class="st0" d="M1513.7,2853.9c-2.3-5.2-5.7-9.4-10.4-12.4c-4.7-3-10.2-4.5-16.4-4.5c-5.9,0-11.2,1.4-15.9,4.1
					c-4.7,2.7-8.4,6.6-11.2,11.7c-2.7,5-4.1,10.9-4.1,17.6c0,6.7,1.4,12.6,4.1,17.6c2.7,5.1,6.4,9,11.2,11.7
					c4.7,2.7,10,4.1,15.9,4.1c5.5,0,10.5-1.2,15-3.6c4.4-2.4,8-5.8,10.7-10.2c2.7-4.4,4.2-9.6,4.6-15.5h-33.5v-6.5h41.9v5.8
					c-0.4,7-2.3,13.3-5.7,19c-3.4,5.7-8,10.1-13.7,13.4c-5.7,3.3-12.2,4.9-19.3,4.9c-7.4,0-14-1.7-20-5.2c-6-3.5-10.7-8.3-14.2-14.5
					c-3.5-6.2-5.2-13.2-5.2-21c0-7.8,1.7-14.8,5.2-21c3.5-6.2,8.2-11,14.2-14.5c6-3.5,12.7-5.2,20-5.2c8.5,0,15.9,2.1,22.3,6.4
					c6.4,4.3,11,10.2,13.9,17.8H1513.7z"/>
				<path class="st0" d="M1593.6,2903.7h28.6v6.5h-36.5v-79.6h8V2903.7z"/>
				<path class="st0" d="M1687,2830.7v79.6h-8v-79.6H1687z"/>
				<path class="st0" d="M1810.7,2910.2h-8l-44.1-66.9v66.9h-8v-79.6h8l44.1,66.8v-66.8h8V2910.2z"/>
				<path class="st0" d="M1882.3,2837.2v29.7h30.2v6.6h-30.2v30.2h33.6v6.6h-41.6v-79.7h41.6v6.6H1882.3z"/>
				<path class="st0" d="M2112.9,2830.7v79.6h-8V2873h-43.1v37.2h-8v-79.6h8v35.7h43.1v-35.7H2112.9z"/>
				<path class="st0" d="M2184.6,2837.2v29.7h30.2v6.6h-30.2v30.2h33.6v6.6h-41.6v-79.7h41.6v6.6H2184.6z"/>
				<path class="st0" d="M2321.8,2910.2l-19.7-33.2h-14.7v33.2h-8v-79.6h23.9c8.9,0,15.6,2.1,20.2,6.4c4.6,4.3,6.9,9.8,6.9,16.7
					c0,5.8-1.7,10.7-5,14.7c-3.3,4.1-8.2,6.7-14.6,7.9l20.5,33.8H2321.8z M2287.4,2870.5h16.1c6.2,0,10.9-1.5,14.1-4.6
					c3.1-3,4.7-7.1,4.7-12.2c0-5.2-1.5-9.3-4.6-12.1c-3-2.8-7.8-4.3-14.3-4.3h-15.9V2870.5z"/>
				<path class="st0" d="M2399.8,2837.2v29.7h30.2v6.6h-30.2v30.2h33.6v6.6h-41.6v-79.7h41.6v6.6H2399.8z"/>
			</g>
		</g>
	</g>
</g>
</svg>
